<svg width="18" height="18" viewBox="0 0 18 18" fill="none" xmlns="http://www.w3.org/2000/svg">
<mask id="mask0_76_2013" style="mask-type:alpha" maskUnits="userSpaceOnUse" x="0" y="0" width="18" height="18">
<rect width="18" height="18" fill="#D9D9D9"/>
</mask>
<g mask="url(#mask0_76_2013)">
<path d="M3.98078 15.3749C3.60193 15.3749 3.28125 15.2437 3.01875 14.9812C2.75625 14.7187 2.625 14.398 2.625 14.0192V3.98076C2.625 3.60191 2.75625 3.28123 3.01875 3.01873C3.28125 2.75623 3.60193 2.62498 3.98078 2.62498H10.4726L9.34761 3.74996H3.98078C3.92308 3.74996 3.87018 3.774 3.82209 3.82207C3.77402 3.87016 3.74998 3.92306 3.74998 3.98076V14.0192C3.74998 14.0769 3.77402 14.1298 3.82209 14.1778C3.87018 14.2259 3.92308 14.25 3.98078 14.25H14.0192C14.0769 14.25 14.1298 14.2259 14.1779 14.1778C14.2259 14.1298 14.25 14.0769 14.25 14.0192V8.60473L15.375 7.47977V14.0192C15.375 14.398 15.2437 14.7187 14.9812 14.9812C14.7187 15.2437 14.398 15.3749 14.0192 15.3749H3.98078ZM7.125 10.8749V8.30045L13.9197 1.50576C14.0361 1.38941 14.1639 1.30455 14.3034 1.25119C14.4428 1.19782 14.5846 1.17114 14.7288 1.17114C14.8759 1.17114 15.0173 1.19782 15.1529 1.25119C15.2884 1.30455 15.412 1.387 15.5235 1.49854L16.4653 2.43748C16.574 2.55382 16.6574 2.68218 16.7156 2.82257C16.7737 2.96294 16.8028 3.10524 16.8028 3.24947C16.8028 3.3937 16.7781 3.53361 16.7286 3.66919C16.679 3.80475 16.5961 3.9307 16.4798 4.04705L9.66343 10.8749H7.125ZM8.24998 9.74996H9.18459L13.8591 5.07542L13.3918 4.60811L12.8914 4.12639L8.24998 8.76776V9.74996Z" fill="#2C2E33"/>
</g>
</svg>
